<?xml version="1.0" encoding="utf-8"?>
<!-- Generator: Adobe Illustrator 19.0.0, SVG Export Plug-In . SVG Version: 6.00 Build 0)  -->
<svg version="1.1" id="Layer_1" xmlns="http://www.w3.org/2000/svg" xmlns:xlink="http://www.w3.org/1999/xlink" x="0px" y="0px"
	 viewBox="-483 485 32 32" style="enable-background:new -483 485 32 32;" xml:space="preserve">
<title>edit, pencil, write, pen, tool</title>
<g>
	<path d="M-480,515h22c0.6,0,1-0.4,1-1c0-0.6-0.4-1-1-1h-21v-21c0-0.6-0.4-1-1-1s-1,0.4-1,1v22C-481,514.6-480.5,515-480,515z"/>
	<path d="M-458.3,487.3c-0.4-0.4-1-0.4-1.4,0l-16,16c-0.1,0.1-0.2,0.3-0.3,0.5l-1,6c-0.1,0.5,0.3,1.1,0.8,1.2c0.1,0,0.1,0,0.2,0h0.2
		l6-1c0.2,0,0.4-0.1,0.5-0.3l16-16c0.4-0.4,0.4-1,0-1.4L-458.3,487.3z"/>
</g>
</svg>
