<?xml version="1.0" encoding="utf-8"?>
<!-- Generator: Adobe Illustrator 19.0.0, SVG Export Plug-In . SVG Version: 6.00 Build 0)  -->
<svg version="1.1" id="Layer_1" xmlns="http://www.w3.org/2000/svg" xmlns:xlink="http://www.w3.org/1999/xlink" x="0px" y="0px"
	 viewBox="-449 434.5 100 100" style="enable-background:new -449 434.5 100 100;" xml:space="preserve">
<title>heart2</title>
<path d="M-349,471v4.5c-0.1,0.3-0.1,0.6-0.2,0.9c-0.6,4.9-2.2,9.6-4.7,13.9c-2.1,3.4-4.5,6.6-7.1,9.6c-3.4,3.9-7.1,7.6-11,11
	c-3.6,3.1-7.2,6.2-11,9c-5,3.8-10.2,7.3-15.3,10.9c-0.3,0.3-0.9,0.3-1.2,0c-4.5-3.2-9.1-6.2-13.5-9.5c-4.6-3.5-9-7.2-13.4-11
	c-5.6-4.8-10.6-10.1-15-16c-3.3-4.4-5.6-9.6-6.8-15c-0.4-1.3-0.6-2.5-0.8-3.7V471c0.1-0.3,0.1-0.5,0.2-0.8c0.4-2,0.7-4,1.3-6
	c2.1-6.6,6.7-12.2,12.7-15.5c5.7-3.3,12.3-4.5,18.7-3.3c6.3,1,12,4.2,16.2,9c0.2,0.3,0.4,0.6,0.5,0.9c1.1-1.1,1.9-1.9,2.8-2.7
	c10.8-10.1,27.5-10.1,38.3-0.1c4.1,3.7,6.9,8.5,8.3,13.8C-349.5,467.8-349.3,469.4-349,471z"/>
</svg>
