<?xml version="1.0" encoding="utf-8"?>
<!-- Generator: Adobe Illustrator 19.0.0, SVG Export Plug-In . SVG Version: 6.00 Build 0)  -->
<svg version="1.1" id="Layer_1" xmlns="http://www.w3.org/2000/svg" xmlns:xlink="http://www.w3.org/1999/xlink" x="0px" y="0px"
	 viewBox="-449 450.5 100 100" style="enable-background:new -449 450.5 100 100;" xml:space="preserve">
<path d="M-351.5,498.8l-44.4-29.6c-1.3-0.9-3.1,0.1-3.1,1.7v11.2c0,1-0.7,1.8-1.7,2c-11.9,1.7-22.4,7.2-31.6,16.4
	c-8.2,8.2-13.4,17.3-15.7,27.5c-0.4,1.9,1.8,3.2,3.3,2c7.5-6.4,14.4-10.7,20.8-12.8c7.2-2.4,15-2.5,23.5-0.4c0.9,0.2,1.5,1,1.5,1.9
	v11.4c0,1.6,1.8,2.6,3.1,1.7l44.4-29.6C-350.3,501.4-350.3,499.6-351.5,498.8z"/>
</svg>
